<svg width="42" height="42" viewBox="0 0 42 42" fill="none" xmlns="http://www.w3.org/2000/svg">
<path d="M21 42C32.598 42 42 32.598 42 21C42 9.40202 32.598 0 21 0C9.40202 0 0 9.40202 0 21C0 32.598 9.40202 42 21 42Z" fill="#DA282A"/>
<path d="M30.5039 10.7552L10.2408 14.1521C10.0404 14.1849 9.85601 14.2818 9.71535 14.4283C9.5747 14.5747 9.48537 14.7629 9.46079 14.9645L9.2523 16.654C9.23433 16.7984 9.25018 16.9449 9.29859 17.0821C9.347 17.2193 9.42665 17.3433 9.53125 17.4445C9.63585 17.5456 9.76252 17.621 9.90127 17.6647C10.04 17.7084 10.187 17.7193 10.3307 17.6965L14.2848 17.035V31.0542C14.285 31.2245 14.3313 31.3915 14.4188 31.5376C14.5063 31.6836 14.6318 31.8032 14.7819 31.8836C14.932 31.964 15.1011 32.0022 15.2712 31.9942C15.4413 31.9861 15.606 31.9321 15.7479 31.8378L17.254 30.8637C17.432 30.7454 17.5781 30.5851 17.6797 30.3971C17.7812 30.2091 17.835 29.999 17.8363 29.7853V16.4419L23.2499 15.5361V25.3926C23.2495 25.9956 23.3976 26.5895 23.6813 27.1216L26.0861 31.6329C26.1541 31.7639 26.2576 31.8732 26.3847 31.9482C26.5118 32.0232 26.6575 32.0609 26.805 32.0571H28.8576C28.995 32.0578 29.1303 32.0232 29.2505 31.9566C29.3707 31.8899 29.4718 31.7935 29.544 31.6766C29.6161 31.5596 29.6571 31.4261 29.6628 31.2888C29.6685 31.1515 29.6388 31.015 29.5765 30.8924L27.1609 26.2589C26.8943 25.7369 26.7551 25.1592 26.7547 24.573V14.9465L30.6082 14.2995C30.8079 14.266 30.9915 14.1688 31.1315 14.0224C31.2714 13.876 31.3602 13.6882 31.3846 13.4871L31.5931 11.7976C31.6115 11.6522 31.5956 11.5045 31.5466 11.3664C31.4976 11.2282 31.4169 11.1035 31.311 11.0021C31.2051 10.9008 31.077 10.8256 30.9368 10.7828C30.7967 10.7399 30.6484 10.7304 30.5039 10.7552Z" fill="white"/>
</svg>
