<svg width="80" height="80" viewBox="0 0 80 80" fill="none" xmlns="http://www.w3.org/2000/svg">
<path d="M50.5694 19.4081L28.5948 23.092C28.3775 23.1275 28.1775 23.2326 28.025 23.3915C27.8725 23.5502 27.7756 23.7543 27.7489 23.973L27.5228 25.8052C27.5033 25.9618 27.5205 26.1206 27.573 26.2694C27.6255 26.4182 27.7119 26.5527 27.8253 26.6624C27.9388 26.7721 28.0761 26.8538 28.2266 26.9012C28.3771 26.9486 28.5365 26.9604 28.6923 26.9357L32.9804 26.2183V41.4217C32.9806 41.6063 33.0308 41.7874 33.1257 41.9459C33.2206 42.1042 33.3567 42.2339 33.5195 42.3211C33.6823 42.4083 33.8656 42.4497 34.0501 42.441C34.2346 42.4323 34.4132 42.3737 34.5671 42.2714L36.2004 41.2151C36.3934 41.0868 36.5519 40.9129 36.662 40.7091C36.7721 40.5052 36.8304 40.2773 36.8319 40.0456V25.5752L42.7027 24.5928V35.2819C42.7023 35.9358 42.8629 36.5799 43.1705 37.1569L45.7785 42.0492C45.8522 42.1913 45.9645 42.3098 46.1023 42.3912C46.2401 42.4725 46.3981 42.5134 46.5581 42.5093H48.784C48.9331 42.51 49.0798 42.4725 49.2101 42.4003C49.3405 42.3279 49.4501 42.2234 49.5284 42.0966C49.6066 41.9697 49.6511 41.825 49.6573 41.6761C49.6634 41.5272 49.6312 41.3791 49.5637 41.2462L46.944 36.2213C46.6549 35.6552 46.504 35.0287 46.5035 34.393V23.9534L50.6825 23.2518C50.8991 23.2155 51.0982 23.1101 51.25 22.9513C51.4017 22.7925 51.498 22.5889 51.5245 22.3708L51.7506 20.5386C51.7706 20.3809 51.7533 20.2207 51.7002 20.071C51.647 19.9211 51.5595 19.7859 51.4447 19.6759C51.3298 19.566 51.1909 19.4845 51.0389 19.4381C50.8869 19.3915 50.7261 19.3812 50.5694 19.4081Z" fill="white"/>
<path fill-rule="evenodd" clip-rule="evenodd" d="M71.608 57.7848C71.1433 59.6438 71.1433 66.1433 71.608 68.4647C72.5353 69.392 72.9992 70.3207 73 71.2509V73.5723C73 75.8938 71.1433 77.2857 69.2866 77.2857H21.9286C14.0348 77.2857 8 71.2509 8 63.3571V16.9286C8 9.03481 14.0348 3 21.9286 3H69.2866C71.608 3 73 4.39195 73 6.71338V55.0009C73 56.3929 72.536 57.3208 71.608 57.7848ZM63.2495 58.7143H21.9286C19.6071 58.7143 17.2857 60.571 17.2857 63.3571C17.2857 66.1433 19.1424 68 21.9286 68H63.2495V58.7143ZM40.2628 53.292C52.8404 53.292 63.0365 43.0959 63.0365 30.5183C63.0365 17.9407 52.8404 7.74453 40.2628 7.74453C27.6852 7.74453 17.4891 17.9407 17.4891 30.5183C17.4891 43.0959 27.6852 53.292 40.2628 53.292Z" fill="white"/>
</svg>
